<svg preserveAspectRatio="none" width="100%" height="100%" overflow="visible" style="display: block;" viewBox="0 0 58.0457 17.9473" fill="none" xmlns="http://www.w3.org/2000/svg">
<g id="Vector">
<path d="M52.332 14.5999C49.9529 14.5999 47.6128 13.1929 47.6128 9.99149C47.6128 6.74932 49.8554 3.75183 53.3265 3.75183C55.7251 3.75183 58.0457 5.13842 58.0457 8.36021C58.0457 11.6024 55.8226 14.5999 52.332 14.5999ZM50.8304 9.80797C50.8304 11.0722 51.552 11.6432 52.449 11.6432C53.8336 11.6432 54.8281 9.9711 54.8281 8.54373C54.8281 7.27948 54.1066 6.70854 53.2095 6.70854C51.825 6.70854 50.8304 8.3806 50.8304 9.80797Z" fill="var(--fill-0, #8BEE6B)"/>
<path fill-rule="evenodd" clip-rule="evenodd" d="M49.5281 2.54703L48.586 5.11364H46.8722C47.0109 5.31044 47.1291 5.53014 47.225 5.77381C48.3579 8.65099 45.9879 11.0143 43.2859 11.0143H41.1408C40.8288 11.0143 40.5557 11.2387 40.5557 11.5649C40.5557 11.7892 40.7118 11.9727 41.0627 11.9727H43.7149C45.821 11.9727 46.835 12.9311 46.835 14.5624C46.835 16.3772 45.4895 17.9473 43.1104 17.9473H39.4442C37.4551 17.9473 36.6166 16.785 36.6166 15.5412C36.6166 14.5012 37.2796 13.5428 38.5277 13.1146C38.1377 12.7068 37.9231 12.1766 37.9231 11.5853C37.9231 10.6269 38.5862 9.72967 39.9707 9.38302C39.5027 8.85286 39.3077 8.20034 39.3077 7.50706C39.3077 5.6107 40.7703 3.75513 43.6369 3.75513C44.6336 3.75513 45.4857 3.95602 46.1358 4.39403L46.8138 2.54703H49.5281ZM40.4066 14.3585C39.8606 14.3585 39.5486 14.644 39.5486 15.0314C39.5486 15.3576 39.7826 15.5615 40.1337 15.5615H43.0783C43.5658 15.5615 43.8973 15.2353 43.8973 14.8683C43.8973 14.5421 43.6438 14.3585 43.2733 14.3585H40.4066ZM43.5463 6.20208C42.7078 6.20208 42.2203 6.89541 42.2203 7.52753C42.2203 8.20041 42.7273 8.56743 43.3513 8.56744C44.2093 8.56744 44.6773 7.87411 44.6773 7.24199C44.6773 6.56911 44.1898 6.20209 43.5463 6.20208Z" fill="var(--fill-0, #8BEE6B)"/>
<path d="M33.2357 14.2738V4.07832H35.9658V5.91352C36.2194 4.71045 37.0384 4.07832 38.3059 4.07832H38.936V6.93307H37.9159C36.8629 6.93307 36.3559 7.42246 36.3559 8.48279V14.2738H33.2357Z" fill="var(--fill-0, #8BEE6B)"/>
<path d="M27.9002 14.6C24.8776 14.6 22.908 12.3977 22.908 9.11478C22.908 5.8726 24.8971 3.75193 27.8222 3.75193C30.8839 3.75193 32.7169 5.81143 32.7169 9.11478C32.7169 9.5226 32.6974 9.95081 32.6584 10.3586H25.9697C26.1062 11.3782 26.7887 11.9084 27.9197 11.9084C28.6998 11.9084 29.1678 11.5821 29.3433 11.1947H32.5609C31.9954 13.2338 30.4938 14.6 27.9002 14.6ZM25.9502 7.9117H29.5773C29.5773 6.95332 28.9923 6.3212 27.8222 6.3212C26.6912 6.3212 26.0282 6.93293 25.9502 7.9117Z" fill="var(--fill-0, #8BEE6B)"/>
<path d="M19.8275 14.2738C17.9945 14.2738 17.1364 13.4989 17.1364 11.4598V1.16235H20.2565V4.07827H22.8102V6.93302H20.2565V10.6238C20.2565 11.154 20.4516 11.4191 21.0171 11.4191H22.8102V14.2738H19.8275Z" fill="var(--fill-0, #8BEE6B)"/>
<path d="M13.3019 14.2736C13.3019 10.5528 13.3019 0 13.3019 0H16.422V14.2736H13.3019Z" fill="var(--fill-0, #8BEE6B)"/>
<path d="M9.46729 14.2737V3.97603H12.5874V14.2737H9.46729ZM9.46729 3.16036V0H12.5874V3.16036H9.46729Z" fill="var(--fill-0, #8BEE6B)"/>
<path d="M0 14.2737V0H8.73637V3.16061H3.21764V5.44441H8.73637V8.60502H3.21764V14.2737H0Z" fill="var(--fill-0, #8BEE6B)"/>
</g>
</svg>
